<svg id="Layer_35" enable-background="new 0 0 64 64" height="512" viewBox="0 0 64 64" width="512" xmlns="http://www.w3.org/2000/svg" xmlns:xlink="http://www.w3.org/1999/xlink"><linearGradient id="SVGID_1_" gradientUnits="userSpaceOnUse" x1="32" x2="32" y1="63" y2="1"><stop offset="0" stop-color="#9f2fff"/><stop offset="1" stop-color="#0bb1d3"/></linearGradient><path d="m16 41v2c0 1.103.897 2 2 2 2.206 0 4 1.794 4 4v4h-3v2h-2v-2.142c-1.72-.447-3-1.999-3-3.858h2c0 1.103.897 2 2 2h2v-2c0-1.103-.897-2-2-2-2.206 0-4-1.794-4-4v-4h3v-2h2v2.142c1.72.447 3 1.999 3 3.858h-2c0-1.103-.897-2-2-2zm9 6h2v-2h-2zm-16 0h2v-2h-2zm22-1c0 7.168-5.832 13-13 13s-13-5.832-13-13 5.832-13 13-13 13 5.832 13 13zm-2 0c0-6.065-4.935-11-11-11s-11 4.935-11 11 4.935 11 11 11 11-4.935 11-11zm22 17h-50v-49.414l12.586-12.586h37.414v27.279l6.744 4.721-6.744 4.721v9.279h8v2h-15v-3.079l-7.256 5.079 7.256 5.079v-3.079h15v2h-8zm-38-50v-8.586l-8.586 8.586zm-6 8h38v-14h-30v8h-8zm42 40v-6h-3v4.921l-12.744-8.921 12.744-8.921v4.921h3v-7.879l-4 2.8v-4.921h-12v-2h14v3.079l7.256-5.079-7.256-5.08v3.08h-14v-2h12v-4.921l4 2.8v-23.879h-34v2h32v18h-42v-8h-2v46zm-20-30h2v-2h-2zm32 24h2v-2h-2zm-36-30h-20v2h20zm0 4h-20v2h20zm16-10h2v-2h-2zm-4 0h2v-2h-2zm-4 0h2v-2h-2z" fill="url(#SVGID_1_)"/></svg>