<svg height="452pt" viewBox="-3 0 452 452.12569" width="452pt" xmlns="http://www.w3.org/2000/svg" xmlns:xlink="http://www.w3.org/1999/xlink"><linearGradient id="a"><stop offset=".322" stop-color="#a163f5"/><stop offset=".466" stop-color="#b074ee"/><stop offset=".752" stop-color="#d8a1dd"/><stop offset=".898" stop-color="#efbad3"/></linearGradient><linearGradient id="b" gradientUnits="userSpaceOnUse" x1="222.562845" x2="222.562845" xlink:href="#a" y1="448.007" y2="3.8"/><linearGradient id="c" gradientUnits="userSpaceOnUse" x1="346.469845" x2="346.469845" xlink:href="#a" y1="448.06" y2="3.854"/><linearGradient id="d" gradientUnits="userSpaceOnUse" x1="147.253845" x2="147.253845" xlink:href="#a" y1="448.007" y2="3.8"/><linearGradient id="e" gradientUnits="userSpaceOnUse" x1="171.062845" x2="171.062845" xlink:href="#a" y1="448.007" y2="3.8"/><linearGradient id="f" gradientUnits="userSpaceOnUse" x1="158.562845" x2="158.562845" xlink:href="#a" y1="448.007" y2="3.8"/><path d="m380.648438 261.0625c-10.941407-4.039062-22.515626-6.101562-34.179688-6.085938-1.472656 0-2.941406.039063-4.40625.101563v-202.828125c-.015625-14.351562-11.648438-25.984375-26-26h-29.035156v-20.25c0-3.3125-2.6875-6-6-6s-6 2.6875-6 6v20.25h-63.285156v-20.25c0-3.3125-2.683594-6-6-6-3.3125 0-6 2.6875-6 6v20.25h-63.28125v-20.25c0-3.3125-2.683594-6-6-6-3.3125 0-6 2.6875-6 6v20.25h-63.285157v-20.25c0-3.3125-2.683593-6-6-6-3.3125 0-6 2.6875-6 6v20.25h-23.113281c-14.351562.015625-25.984375 11.648438-26 26v340c.015625 14.355469 11.648438 25.984375 26 26h246.039062c27.023438 31.0625 70.503907 42.058594 109.046876 27.578125 38.539062-14.480469 64.023437-51.382813 63.914062-92.554687-.109375-41.171876-25.792969-77.9375-64.414062-92.210938zm-354.585938 145.1875c-7.726562-.007812-13.992188-6.269531-14-14v-340c.007812-7.726562 6.273438-13.992188 14-14h23.113281v10.859375c-12.832031 3.042969-21.355469 15.214844-19.824219 28.316406 1.535157 13.101563 12.632813 22.980469 25.824219 22.980469 13.191407 0 24.292969-9.878906 25.824219-22.980469 1.535156-13.101562-6.988281-25.273437-19.824219-28.316406v-10.859375h63.285157v10.859375c-12.832032 3.042969-21.355469 15.214844-19.820313 28.316406 1.53125 13.101563 12.632813 22.980469 25.820313 22.980469 13.191406 0 24.292968-9.878906 25.824218-22.980469 1.535156-13.101562-6.988281-25.273437-19.824218-28.316406v-10.859375h63.285156v10.859375c-12.835938 3.042969-21.355469 15.214844-19.824219 28.316406 1.535156 13.101563 12.632813 22.980469 25.824219 22.980469s24.292968-9.878906 25.824218-22.980469c1.53125-13.101562-6.988281-25.273437-19.824218-28.316406v-10.859375h63.285156v10.859375c-12.835938 3.042969-21.359375 15.214844-19.824219 28.316406 1.53125 13.101563 12.632813 22.980469 25.824219 22.980469s24.289062-9.878906 25.824219-22.980469c1.53125-13.101562-6.992188-25.273437-19.824219-28.316406v-10.859375h29.03125c7.730469.007812 13.992188 6.273438 14 14v204.117188c-44.289062 7.460937-77.933594 43.917968-81.820312 88.664062-.242188 2.820312-.363282 5.691406-.363282 8.539062-.039062 18.660157 5.261719 36.941407 15.285156 52.679688zm29.113281-345.847656c7.734375 0 14 6.269531 14 14 0 7.730468-6.265625 14-14 14-7.730469 0-14-6.269532-14-14 .011719-7.730469 6.273438-13.992188 14-14zm75.285157 0c7.730468 0 14 6.269531 14 14 0 7.730468-6.269532 14-14 14-7.734376 0-14-6.269532-14-14 .007812-7.730469 6.273437-13.992188 14-14zm75.28125 0c7.734374 0 14 6.269531 14 14 0 7.730468-6.265626 14-14 14-7.730469 0-14-6.269532-14-14 .011718-7.726563 6.273437-13.992188 14-14zm75.285156 0c7.730468 0 14 6.269531 14 14 0 7.730468-6.269532 14-14 14-7.734375 0-14-6.269532-14-14 .007812-7.730469 6.269531-13.992188 14-14zm65.441406 379.757812c-22.972656.027344-45.015625-9.085937-61.257812-25.332031-16.246094-16.242187-25.359376-38.285156-25.332032-61.257813 0-2.5.105469-5.035156.320313-7.511718 4.058593-46.679688 44.503906-81.664063 91.277343-78.957032 46.777344 2.707032 82.917969 42.128907 81.5625 88.960938-1.355468 46.835938-39.714843 84.097656-86.570312 84.09375zm0 0" fill="url(#b)"/><path d="m376.210938 323.828125c-2.34375-2.339844-6.144532-2.339844-8.484376 0l-21.257812 21.253906-21.253906-21.253906c-1.507813-1.550781-3.734375-2.167969-5.824219-1.621094-2.09375.550781-3.726563 2.1875-4.277344 4.277344-.550781 2.09375.066407 4.316406 1.617188 5.828125l21.253906 21.253906-21.253906 21.253906c-2.308594 2.347657-2.292969 6.121094.035156 8.453126 2.328125 2.328124 6.101563 2.34375 8.449219.03125l21.253906-21.253907 21.257812 21.253907c2.347657 2.3125 6.121094 2.296874 8.449219-.03125 2.328125-2.332032 2.34375-6.105469.035157-8.453126l-21.257813-21.253906 21.257813-21.253906c2.339843-2.34375 2.339843-6.140625 0-8.484375zm0 0" fill="url(#c)"/><path d="m233.445312 336.25h-172.382812c-3.3125 0-6 2.6875-6 6 0 3.316406 2.6875 6 6 6h172.382812c3.3125 0 6-2.683594 6-6 0-3.3125-2.6875-6-6-6zm0 0" fill="url(#d)"/><path d="m61.0625 238.320312h220c3.3125 0 6-2.6875 6-6 0-3.316406-2.6875-6-6-6h-220c-3.3125 0-6 2.683594-6 6 0 3.3125 2.6875 6 6 6zm0 0" fill="url(#e)"/><path d="m61.0625 183.355469h220c3.3125 0 6-2.6875 6-6 0-3.316407-2.6875-6-6-6h-220c-3.3125 0-6 2.683593-6 6 0 3.3125 2.6875 6 6 6zm0 0" fill="url(#e)"/><path d="m61.0625 293.28125h195c3.3125 0 6-2.6875 6-6s-2.6875-6-6-6h-195c-3.3125 0-6 2.6875-6 6s2.6875 6 6 6zm0 0" fill="url(#f)"/></svg>